DataType=double
version=3
OpenSimVersion=4.5-2024-01-10-34fd6af
endheader
time	pelvis_tilt	pelvis_list	pelvis_rotation	pelvis_tx	pelvis_ty	pelvis_tz	hip_flexion_r	hip_adduction_r	hip_rotation_r	knee_angle_r	knee_adduction_r	knee_angle_r_beta	ankle_angle_r	subtalar_angle_r	mtp_angle_r	hip_flexion_l	hip_adduction_l	hip_rotation_l	knee_angle_l	knee_adduction_l	knee_angle_l_beta	ankle_angle_l	subtalar_angle_l	mtp_angle_l	lumbar_extension	lumbar_bending	lumbar_rotation	arm_flex_r	arm_add_r	arm_rot_r	elbow_flex_r	pro_sup_r	wrist_flex_r	wrist_dev_r	arm_flex_l	arm_add_l	arm_rot_l	elbow_flex_l	pro_sup_l	wrist_flex_l	wrist_dev_l
2.76	-0.1420160992418151	-0.03838455171117717	0.002063026847569455	0.8153888511167546	0.9531600564585051	0.4931584619235112	-0.0811997737095973	0.02719082722514539	-0.07362335668177214	0.2634335942714144	0.1091	0.2634335942714144	0.1386959238440843	0.09074273969411775	-0.3908674054236824	0.5628864780844524	-0.08610518429290052	-0.1247846739621574	0.153667221819047	0.1123	0.153667221819047	0.04330585578589508	0.1719631769689132	-0.2065577384390491	-0.04092045260072717	0.05165433571216042	0.01260178266363265	0.07842160401256565	-0.2824141650335045	-0.1589639837406681	1.027703009621381	1.57079633	0	0	-0.2745048805251396	-0.1844985671067975	-0.01029907218471853	0.5338726634826776	1.57079633	0	0
2.765	-0.1415870694790694	-0.03538339351800258	0.00129009717252756	0.8161752278634975	0.9527326072402321	0.4924668980047059	-0.08466441614910802	0.02256499826916459	-0.07631905272603665	0.2719623882467326	0.1091	0.2719623882467326	0.1361638984940582	0.09311928689036375	-0.4035958330539549	0.5600609835952656	-0.0818150370615756	-0.1220188132155392	0.1592632030406232	0.1123	0.1592632030406232	0.03532916904321831	0.1660636616239964	-0.2110929920852507	-0.04054130425477961	0.04873076286449016	0.01381829440514196	0.07559341057773097	-0.2815309940406712	-0.1595560358215274	1.025825950570949	1.57079633	0	0	-0.2759801838105031	-0.1846490193874263	-0.01106557523542987	0.5343876769216214	1.57079633	0	0
2.77	-0.1411256956300187	-0.03217193689949249	0.000543783138539821	0.8170035839934205	0.9523408548077112	0.4917663515138585	-0.08763448978997523	0.01765092071988747	-0.07917667585233756	0.2814812182708404	0.1091	0.2814812182708404	0.1328700477178922	0.09497892607499091	-0.416197667696428	0.5570930903575164	-0.07729308106865621	-0.1191682927149303	0.165419265525983	0.1123	0.165419265525983	0.02646113071171426	0.1590352263513051	-0.2156538916036708	-0.04012722627564605	0.04553642169051496	0.01508854183477208	0.0725923144968513	-0.2805134598357073	-0.1602614876554238	1.023406157012317	1.57079633	0	0	-0.2771529637064779	-0.1849204874293716	-0.0117551064696866	0.5347359720608886	1.57079633	0	0
2.775	-0.140639761861871	-0.02877742158148423	-0.0001710342545854209	0.817868090149381	0.9519853093562413	0.4910571849276618	-0.09003875745527373	0.01247473503153204	-0.08217889781867116	0.292077331218939	0.1091	0.292077331218939	0.1287005258600254	0.09623517520390271	-0.4285516638430829	0.554011005265702	-0.07257248930383284	-0.1162829069048965	0.1720623593243542	0.1123	0.1720623593243542	0.0168575335386281	0.1510104321527307	-0.2201557337640166	-0.03967948642284879	0.04210416530185122	0.01640189589206145	0.06944072288671002	-0.2793643230214228	-0.1610818606667255	1.020434485815254	1.57079633	0	0	-0.2780099369992772	-0.1853123788341085	-0.01234746605432863	0.5349166204187641	1.57079633	0	0
2.78	-0.1401364359157113	-0.02522728379094214	-0.0008517260154322793	0.8187622235998869	0.9516663964193678	0.4903399379157596	-0.09180434337565985	0.007063673865244442	-0.08529985287839281	0.3038374299514612	0.1091	0.3038374299514612	0.1235406708660469	0.09679973056381756	-0.4405289932459919	0.5508428883103931	-0.06768661400851454	-0.1134098994964063	0.1791262901645556	0.1123	0.1791262901645556	0.006691757623630602	0.1421306046558845	-0.224511676133958	-0.03920170143170792	0.03846787897120389	0.0177478572214416	0.06616330450310681	-0.2780873143433505	-0.1620164381312627	1.016905388030945	1.57079633	0	0	-0.2785388925654766	-0.185823538691806	-0.01282209202170009	0.5349323075121128	1.57079633	0	0
